<?xml version="1.0" encoding="UTF-8"?>
<svg height="128px" viewBox="0 0 128 128" width="128px" xmlns="http://www.w3.org/2000/svg" xmlns:xlink="http://www.w3.org/1999/xlink">
    <linearGradient id="a" gradientUnits="userSpaceOnUse" x1="12" x2="28" y1="72" y2="72">
        <stop offset="0" stop-color="#c64600"/>
        <stop offset="0.5" stop-color="#ff7800"/>
        <stop offset="1" stop-color="#e66100"/>
    </linearGradient>
    <linearGradient id="b" gradientUnits="userSpaceOnUse" x1="108" x2="116" y1="106" y2="106">
        <stop offset="0" stop-color="#facb70"/>
        <stop offset="0.323" stop-color="#ffd88c"/>
        <stop offset="1" stop-color="#facb70"/>
    </linearGradient>
    <linearGradient id="c" gradientUnits="userSpaceOnUse" x1="27.164" x2="18.627001" y1="120.007004" y2="113.147003">
        <stop offset="0" stop-color="#c64600"/>
        <stop offset="0.4" stop-color="#c54600"/>
        <stop offset="1" stop-color="#983600"/>
    </linearGradient>
    <linearGradient id="d" gradientUnits="userSpaceOnUse" x1="18.506001" x2="21.92" y1="112.681" y2="118.595001">
        <stop offset="0" stop-color="#c64600"/>
        <stop offset="1" stop-color="#e66100"/>
    </linearGradient>
    <clipPath id="e">
        <rect height="128" width="128"/>
    </clipPath>
    <clipPath id="f">
        <rect height="128" width="128"/>
    </clipPath>
    <filter id="g" height="100%" width="100%" x="0%" y="0%">
        <feColorMatrix in="SourceGraphic" type="matrix" values="0 0 0 0 1 0 0 0 0 1 0 0 0 0 1 0 0 0 1 0"/>
    </filter>
    <mask id="h">
        <g clip-path="url(#f)" filter="url(#g)">
            <g clip-path="url(#e)">
                <path d="m 80 108 h -60 c -4.417969 0 -8 3.582031 -8 8 s 3.582031 8 8 8 h 60 c 4.417969 0 8 -3.582031 8 -8 s -3.582031 -8 -8 -8 z m 0 0" fill="#c64600"/>
                <path d="m 20 12 c 4.433594 0 8 3.566406 8 8 v 96 h -16 v -96 c 0 -4.433594 3.566406 -8 8 -8 z m 0 0" fill="url(#a)"/>
                <path d="m 46 40 h -18 v 76 h 18 z m 0 0" fill="#ffeac1"/>
                <path d="m 108 92 h -72 c -4.417969 0 -8 3.582031 -8 8 s 3.582031 8 8 8 h 72 c 4.417969 0 8 -3.582031 8 -8 s -3.582031 -8 -8 -8 z m 0 0" fill="#ffeac1"/>
                <path d="m 116 20 h -88 v 80 h 88 z m 0 0" fill="#ffeac1"/>
                <path d="m 108 12 h -72 c -4.417969 0 -8 3.582031 -8 8 s 3.582031 8 8 8 h 72 c 4.417969 0 8 -3.582031 8 -8 s -3.582031 -8 -8 -8 z m 0 80 h -72 c -4.417969 0 -8 3.582031 -8 8 s 3.582031 8 8 8 h 72 c 4.417969 0 8 -3.582031 8 -8 s -3.582031 -8 -8 -8 z m 0 0" fill="#ffeac1"/>
                <path d="m 116 100 c 0 4.433594 -3.566406 8 -8 8 h -72 c -4.417969 0 -8 3.582031 -8 8 h 80 c 4.417969 0 8 -3.582031 8 -8 z m 0 0" fill="url(#b)"/>
                <path d="m 28 116 c 0 -4.417969 -3.582031 -8 -8 -8 s -8 3.582031 -8 8 s 3.582031 8 8 8 s 8 -3.582031 8 -8 z m 0 0" fill="url(#c)"/>
                <path d="m 20 107.875 c -4.53125 0 -8 3.488281 -8 8.125 c 0 4 3 8 8 8 v -2 c -3.523438 0 -6 -2.617188 -6 -6 c 0 -3.652344 2.414062 -6.09375 6.011719 -6.171875 c 3.382812 0.003906 5.988281 2.664063 5.988281 6.046875 h 2 c 0 -5 -3.984375 -8 -8 -8 z m 0 0" fill="url(#d)"/>
                <path d="m 19.683594 122 h 60.316406 c 3.894531 0 8 -2.179688 8 -6 c 0 4.1875 -3.257812 8 -8 8 h -60.316406 z m 0 0" fill="#e66100"/>
                <path d="m 67 94 h 4 m -4 0 v -7 m -13 -62 h 7 m 5 0 h 7 m 3 69 h 7 m -41 -69 h 7 m -7 69 h 7 m 49 -7 h 5 m -5 7 h 5 m -2.5 -7 v 7 m -2.5 -21 h 5 m -5 7 h 5 m -2.5 -7 v 7 m -46.5 7 v 7 l 3.5 -3.5 l 3.5 3.5 v -7 m 27.5 5 s 0 2 1.5 2 c 2 0 2 -2 2 -2 v -5 m -38 -56 v 8 m 7 0 v -8 m -7 4 h 7 m -7 10 v 8 m 7 0 v -8 m -7 4 h 7 m -7 10 v 8 m 7 0 v -8 m -7 4 h 7 m -7 10 v 8 m 7 0 v -8 m -7 4 h 7" fill="none" stroke="#000000" stroke-linecap="round" stroke-linejoin="round" stroke-width="3"/>
                <path d="m 67 95 h 4 m -4 0 v -7 m -13 -62 h 7 m 5 0 h 7 m 3 69 h 7 m -41 -69 h 7 m -7 69 h 7 m 49 -7 h 5 m -5 7 h 5 m -2.5 -7 v 7 m -2.5 -21 h 5 m -5 7 h 5 m -2.5 -7 v 7 m -46.5 7 v 7 l 3.5 -3.5 l 3.5 3.5 v -7 m 27.5 5 s 0 2 1.5 2 c 2 0 2 -2 2 -2 v -5 m -38 -56 v 8 m 7 0 v -8 m -7 4 h 7 m -7 10 v 8 m 7 0 v -8 m -7 4 h 7 m -7 10 v 8 m 7 0 v -8 m -7 4 h 7 m -7 10 v 8 m 7 0 v -8 m -7 4 h 7" fill="none" stroke="#3d3846" stroke-linecap="round" stroke-linejoin="round" stroke-width="3"/>
            </g>
        </g>
    </mask>
    <mask id="i">
        <g filter="url(#g)">
            <rect fill-opacity="0.8" height="128" width="128"/>
        </g>
    </mask>
    <linearGradient id="j" gradientTransform="matrix(0 0.37 -0.98462 0 295.38501 -30.360001)" gradientUnits="userSpaceOnUse" x1="300" x2="428" y1="235" y2="235">
        <stop offset="0" stop-color="#f9f06b"/>
        <stop offset="1" stop-color="#f5c211"/>
    </linearGradient>
    <clipPath id="k">
        <rect height="128" width="128"/>
    </clipPath>
    <clipPath id="l">
        <rect height="128" width="128"/>
    </clipPath>
    <path d="m 80 108 h -60 c -4.417969 0 -8 3.582031 -8 8 s 3.582031 8 8 8 h 60 c 4.417969 0 8 -3.582031 8 -8 s -3.582031 -8 -8 -8 z m 0 0" fill="#c64600"/>
    <path d="m 20 12 c 4.433594 0 8 3.566406 8 8 v 96 h -16 v -96 c 0 -4.433594 3.566406 -8 8 -8 z m 0 0" fill="url(#a)"/>
    <g fill="#ffeac1">
        <path d="m 46 40 h -18 v 76 h 18 z m 0 0"/>
        <path d="m 108 92 h -72 c -4.417969 0 -8 3.582031 -8 8 s 3.582031 8 8 8 h 72 c 4.417969 0 8 -3.582031 8 -8 s -3.582031 -8 -8 -8 z m 0 0"/>
        <path d="m 116 20 h -88 v 80 h 88 z m 0 0"/>
        <path d="m 108 12 h -72 c -4.417969 0 -8 3.582031 -8 8 s 3.582031 8 8 8 h 72 c 4.417969 0 8 -3.582031 8 -8 s -3.582031 -8 -8 -8 z m 0 80 h -72 c -4.417969 0 -8 3.582031 -8 8 s 3.582031 8 8 8 h 72 c 4.417969 0 8 -3.582031 8 -8 s -3.582031 -8 -8 -8 z m 0 0"/>
    </g>
    <path d="m 116 100 c 0 4.433594 -3.566406 8 -8 8 h -72 c -4.417969 0 -8 3.582031 -8 8 h 80 c 4.417969 0 8 -3.582031 8 -8 z m 0 0" fill="url(#b)"/>
    <path d="m 28 116 c 0 -4.417969 -3.582031 -8 -8 -8 s -8 3.582031 -8 8 s 3.582031 8 8 8 s 8 -3.582031 8 -8 z m 0 0" fill="url(#c)"/>
    <path d="m 20 107.875 c -4.53125 0 -8 3.488281 -8 8.125 c 0 4 3 8 8 8 v -2 c -3.523438 0 -6 -2.617188 -6 -6 c 0 -3.652344 2.414062 -6.09375 6.011719 -6.171875 c 3.382812 0.003906 5.988281 2.664063 5.988281 6.046875 h 2 c 0 -5 -3.984375 -8 -8 -8 z m 0 0" fill="url(#d)"/>
    <path d="m 19.683594 122 h 60.316406 c 3.894531 0 8 -2.179688 8 -6 c 0 4.1875 -3.257812 8 -8 8 h -60.316406 z m 0 0" fill="#e66100"/>
    <path d="m 67 94 h 4 m -4 0 v -7 m -13 -62 h 7 m 5 0 h 7 m 3 69 h 7 m -41 -69 h 7 m -7 69 h 7 m 49 -7 h 5 m -5 7 h 5 m -2.5 -7 v 7 m -2.5 -21 h 5 m -5 7 h 5 m -2.5 -7 v 7 m -46.5 7 v 7 l 3.5 -3.5 l 3.5 3.5 v -7 m 27.5 5 s 0 2 1.5 2 c 2 0 2 -2 2 -2 v -5 m -38 -56 v 8 m 7 0 v -8 m -7 4 h 7 m -7 10 v 8 m 7 0 v -8 m -7 4 h 7 m -7 10 v 8 m 7 0 v -8 m -7 4 h 7 m -7 10 v 8 m 7 0 v -8 m -7 4 h 7" fill="none" stroke="#000000" stroke-linecap="round" stroke-linejoin="round" stroke-width="3"/>
    <path d="m 67 95 h 4 m -4 0 v -7 m -13 -62 h 7 m 5 0 h 7 m 3 69 h 7 m -41 -69 h 7 m -7 69 h 7 m 49 -7 h 5 m -5 7 h 5 m -2.5 -7 v 7 m -2.5 -21 h 5 m -5 7 h 5 m -2.5 -7 v 7 m -46.5 7 v 7 l 3.5 -3.5 l 3.5 3.5 v -7 m 27.5 5 s 0 2 1.5 2 c 2 0 2 -2 2 -2 v -5 m -38 -56 v 8 m 7 0 v -8 m -7 4 h 7 m -7 10 v 8 m 7 0 v -8 m -7 4 h 7 m -7 10 v 8 m 7 0 v -8 m -7 4 h 7 m -7 10 v 8 m 7 0 v -8 m -7 4 h 7" fill="none" stroke="#3d3846" stroke-linecap="round" stroke-linejoin="round" stroke-width="3"/>
    <g clip-path="url(#l)" mask="url(#h)">
        <g clip-path="url(#k)" mask="url(#i)">
            <path d="m 128 80.640625 v 47.359375 h -128 v -47.359375 z m 0 0" fill="url(#j)"/>
            <path d="m 13.308594 80.640625 l 47.355468 47.359375 h 21.214844 l -47.359375 -47.359375 z m 42.421875 0 l 47.363281 47.359375 h 21.214844 l -47.363282 -47.359375 z m 42.429687 0 l 29.839844 29.839844 v -21.210938 l -8.628906 -8.628906 z m -98.160156 7.90625 v 21.214844 l 18.238281 18.238281 h 21.214844 z m 0 0"/>
        </g>
    </g>
</svg>
