<?xml version="1.0" encoding="UTF-8"?>
<svg height="128px" viewBox="0 0 128 128" width="128px" xmlns="http://www.w3.org/2000/svg" xmlns:xlink="http://www.w3.org/1999/xlink">
    <linearGradient id="a" gradientTransform="matrix(-0.232143 0 0 0.328947 136.566925 263.826965)" gradientUnits="userSpaceOnUse" x1="88.595886" x2="536.595886" y1="-449.394012" y2="-449.394012">
        <stop offset="0" stop-color="#3c1f16"/>
        <stop offset="0.0384615" stop-color="#ba7961"/>
        <stop offset="0.0768555" stop-color="#623b22"/>
        <stop offset="0.298041" stop-color="#975135"/>
        <stop offset="0.923077" stop-color="#623b22"/>
        <stop offset="0.961538" stop-color="#ba7961"/>
        <stop offset="1" stop-color="#3c1f16"/>
    </linearGradient>
    <linearGradient id="b" gradientUnits="userSpaceOnUse">
        <stop offset="0" stop-color="#9aa6a5"/>
        <stop offset="0.7" stop-color="#bdc0c0"/>
        <stop offset="1" stop-color="#96a5a1"/>
    </linearGradient>
    <linearGradient id="c" gradientTransform="matrix(-1 0 0 1 128.000015 -172)" x1="15.976799" x2="60.023205" xlink:href="#b" y1="278.023224" y2="233.976822"/>
    <linearGradient id="d" gradientUnits="userSpaceOnUse">
        <stop offset="0" stop-color="#cc9579"/>
        <stop offset="0.2" stop-color="#deb6a2"/>
        <stop offset="1" stop-color="#c67f5a"/>
    </linearGradient>
    <linearGradient id="e" gradientTransform="matrix(-1 0 0 1 128.000015 -172)" x1="58.825542" x2="17.17448" xlink:href="#d" y1="187.174469" y2="228.825531"/>
    <linearGradient id="f" gradientTransform="matrix(0 1 1 0 51.999989 -172)" gradientUnits="userSpaceOnUse" x1="220" x2="220" y1="27.355316" y2="48.644669">
        <stop offset="0" stop-color="#49291c"/>
        <stop offset="0.6" stop-color="#7c4b2f"/>
        <stop offset="1" stop-color="#553320"/>
    </linearGradient>
    <linearGradient id="g" gradientTransform="matrix(0 1 1 0 128.000015 -172)" gradientUnits="userSpaceOnUse" x1="231.049652" x2="231.049652" y1="-114" y2="-66">
        <stop offset="0" stop-color="#5c6662"/>
        <stop offset="0.7" stop-color="#868d8d"/>
        <stop offset="1" stop-color="#525c5a"/>
    </linearGradient>
    <linearGradient id="h" gradientUnits="userSpaceOnUse">
        <stop offset="0" stop-color="#925235"/>
        <stop offset="0.2" stop-color="#ba7347"/>
        <stop offset="1" stop-color="#925433"/>
    </linearGradient>
    <linearGradient id="i" x1="79.999991" x2="99.999989" xlink:href="#h" y1="45" y2="25"/>
    <linearGradient id="j" gradientTransform="matrix(0 1 1 0 128.000015 -172)" gradientUnits="userSpaceOnUse" x1="231.049652" x2="231.049652" y1="-62" y2="-14.000002">
        <stop offset="0" stop-color="#925235"/>
        <stop offset="0.2" stop-color="#cf9b7e"/>
        <stop offset="1" stop-color="#925433"/>
    </linearGradient>
    <linearGradient id="k" gradientTransform="matrix(-1 0 0 1 128.000015 -172)" x1="111.999992" x2="68.000031" xlink:href="#d" y1="234" y2="277.999969"/>
    <linearGradient id="l" gradientTransform="matrix(-1 0 0 1 128.000015 -172)" gradientUnits="userSpaceOnUse" x1="80" x2="100" y1="259" y2="259">
        <stop offset="0" stop-color="#46271b"/>
        <stop offset="0.6" stop-color="#7f4f31"/>
        <stop offset="1" stop-color="#442b1b"/>
    </linearGradient>
    <linearGradient id="m" x1="30.494472" x2="45.505566" xlink:href="#h" y1="96" y2="70"/>
    <linearGradient id="n" gradientTransform="matrix(-1 0 0 1 128.000015 -172)" x1="67.900894" x2="112.099113" xlink:href="#b" y1="230.099106" y2="185.900894"/>
    <linearGradient id="o" gradientUnits="userSpaceOnUse">
        <stop offset="0" stop-color="#212524"/>
        <stop offset="0.7" stop-color="#494d4d"/>
        <stop offset="1" stop-color="#323938"/>
    </linearGradient>
    <linearGradient id="p" gradientTransform="matrix(-1 0 0 1 128.000015 -172)" x1="85" x2="95" xlink:href="#o" y1="203" y2="203"/>
    <linearGradient id="q" gradientUnits="userSpaceOnUse">
        <stop offset="0" stop-color="#454e4d"/>
        <stop offset="0.7" stop-color="#707777"/>
        <stop offset="1" stop-color="#556461"/>
    </linearGradient>
    <linearGradient id="r" gradientTransform="matrix(-1 0 0 1 128.000015 -172)" x1="85" x2="95" xlink:href="#q" y1="204" y2="194"/>
    <linearGradient id="s" gradientTransform="matrix(-1 0 0 1 128.000015 -172)" x1="85" x2="95" xlink:href="#o" y1="219" y2="219"/>
    <linearGradient id="t" gradientTransform="matrix(-1 0 0 1 128.000015 -172)" x1="85.270905" x2="94.729095" xlink:href="#q" y1="219.729095" y2="210.270905"/>
    <linearGradient id="u" x1="84.000019" x2="96.000019" xlink:href="#o" y1="91" y2="91"/>
    <linearGradient id="v" x1="85.224571" x2="94.775467" xlink:href="#q" y1="97.271332" y2="80.728699"/>
    <linearGradient id="w" gradientTransform="matrix(-1 0 0 1 128.000015 -172)" gradientUnits="userSpaceOnUse" x1="9.066574" x2="118.933434" y1="246.719299" y2="217.280563">
        <stop offset="0" stop-color="#8b4e33"/>
        <stop offset="0.2" stop-color="#c88d6b"/>
        <stop offset="1" stop-color="#814d2e"/>
    </linearGradient>
    <path d="m 108 16 h -88 c -4.417969 0 -8 3.582031 -8 8 v 84 c 0 4.417969 3.582031 8 8 8 h 88 c 4.417969 0 8 -3.582031 8 -8 v -84 c 0 -4.417969 -3.582031 -8 -8 -8 z m 0 0" fill="url(#a)"/>
    <path d="m 108 106 h -42 v -44 h 48 v 38 c 0 3.3125 -2.6875 6 -6 6 z m 0 0" fill="url(#c)"/>
    <path d="m 66 14 h -4 v 92 h 4 z m 0 0" fill="#453323"/>
    <path d="m 14 58 v 4 h 100 v -4 z m 0 0" fill="#453323"/>
    <path d="m 108 14 h -42 v 44 h 48 v -38 c 0 -3.3125 -2.6875 -6 -6 -6 z m 0 0" fill="url(#e)"/>
    <path d="m 80 44 v 8 h 20 v -8 z m 0 0" fill="url(#f)"/>
    <path d="m 14 58 v 2.097656 h 48 v -2.097656 z m 0 0" fill="url(#g)"/>
    <path d="m 100 22 v 26 h -20 v -8 h 12 v -18 z m 0 0" fill="url(#i)"/>
    <path d="m 66 58 v 2.097656 h 48 v -2.097656 z m 0 0" fill="url(#j)"/>
    <path d="m 20 106 h 42 v -44 h -48 v 38 c 0 3.3125 2.6875 6 6 6 z m 0 0" fill="url(#k)"/>
    <path d="m 48 74 v 26 h -8 v -10 h -4 c -4.417969 0 -8 -3.582031 -8 -8 v -4 h 1.105469 c 1.421875 -2.464844 4.046875 -3.988281 6.894531 -4 z m -8 6 h -3 c -1.105469 0 -2 0.894531 -2 2 s 0.894531 2 2 2 h 3 z m 0 0" fill="url(#l)"/>
    <path d="m 48 70 v 26 h -8 v -10 h -4 c -4.417969 0 -8 -3.582031 -8 -8 s 3.582031 -8 8 -8 z m -8 6 h -3 c -1.105469 0 -2 0.894531 -2 2 s 0.894531 2 2 2 h 3 z m 0 0" fill="url(#m)"/>
    <path d="m 20 14 h 42 v 44 h -48 v -38 c 0 -3.3125 2.6875 -6 6 -6 z m 0 0" fill="url(#n)"/>
    <path d="m 38 26 c 1.074219 0.003906 2.117188 0.355469 2.980469 1 h 2.019531 v 4 c 0 2.761719 -2.238281 5 -5 5 s -5 -2.238281 -5 -5 v -4 h 2.003906 c 0.863282 -0.648438 1.914063 -1 2.996094 -1 z m 0 0" fill="url(#p)"/>
    <path d="m 33 27 c 0 2.761719 2.238281 5 5 5 s 5 -2.238281 5 -5 s -2.238281 -5 -5 -5 s -5 2.238281 -5 5 z m 0 0" fill="url(#r)"/>
    <path d="m 38 42 c 1.074219 0.003906 2.117188 0.355469 2.980469 1 h 2.019531 v 4 c 0 2.761719 -2.238281 5 -5 5 s -5 -2.238281 -5 -5 v -4 h 2.003906 c 0.863282 -0.648438 1.914063 -1 2.996094 -1 z m 0 0" fill="url(#s)"/>
    <path d="m 33 43 c 0 2.761719 2.238281 5 5 5 s 5 -2.238281 5 -5 s -2.238281 -5 -5 -5 s -5 2.238281 -5 5 z m 0 0" fill="url(#t)"/>
    <path d="m 92 82 v 4 h 2 l 1.429688 10 h 0.570312 v 4 h -8 l -4 -14 v -4 z m 0 0" fill="url(#u)"/>
    <path d="m 94 82 h -10 l 4 14 h 8 z m 0 0" fill="url(#v)"/>
    <path d="m 66 14 h -4 v 2 h 4 z m 0 0" fill="#844f2f"/>
    <path d="m 62 57 h -48 v 1 h 48 z m 0 0" fill="#ffffff" fill-opacity="0.243137"/>
    <path d="m 114 57 h -48 v 1 h 48 z m 0 0" fill="#ffffff" fill-opacity="0.243137"/>
    <path d="m 108 12 c 4.433594 0 8 3.566406 8 8 v 80 c 0 4.433594 -3.566406 8 -8 8 h -88 c -4.433594 0 -8 -3.566406 -8 -8 v -80 c 0 -4.433594 3.566406 -8 8 -8 z m 0 2 h -88 c -3.324219 0 -6 2.675781 -6 6 v 80 c 0 3.324219 2.675781 6 6 6 h 88 c 3.324219 0 6 -2.675781 6 -6 v -80 c 0 -3.324219 -2.675781 -6 -6 -6 z m 0 0" fill="url(#w)"/>
</svg>
