<svg width="500" height="270" fill="none" xmlns="http://www.w3.org/2000/svg"><path d="M369.685 37.029a14.7 14.7 0 0 1-9.07 13.57 14.686 14.686 0 0 1-5.621 1.116h-4.57a14.691 14.691 0 0 0-13.571 20.312 14.68 14.68 0 0 0 13.571 9.064h36.244a14.694 14.694 0 0 1 13.572 9.07 14.685 14.685 0 0 1-13.572 20.309h-3.206a14.687 14.687 0 0 0-14.691 14.69 14.457 14.457 0 0 0 14.691 14.218h18.573c1.93 0 3.84.38 5.622 1.119a14.679 14.679 0 0 1 7.951 7.95 14.686 14.686 0 0 1-13.573 20.309h-38.191a14.69 14.69 0 0 0-14.691 14.691 14.69 14.69 0 0 0 14.691 14.685h21.101a14.7 14.7 0 0 1 10.388 4.303 14.679 14.679 0 0 1 4.302 10.388 14.69 14.69 0 0 1-4.303 10.386 14.702 14.702 0 0 1-10.387 4.3 13.74 13.74 0 0 0-12.721 14.691 14.692 14.692 0 0 1-9.07 13.569 14.67 14.67 0 0 1-5.621 1.117H230.858a14.692 14.692 0 0 1-14.691-14.691 14.673 14.673 0 0 0-4.304-10.385 14.685 14.685 0 0 0-10.387-4.301h-59.362a14.693 14.693 0 0 1-14.69-14.691 14.688 14.688 0 0 0-14.691-14.686h-21.1a14.696 14.696 0 0 1-10.389-4.303 14.693 14.693 0 0 1-3.183-16.009 14.678 14.678 0 0 1 7.95-7.947 14.673 14.673 0 0 1 5.621-1.117h46.579a14.692 14.692 0 0 0 14.691-14.691 14.69 14.69 0 0 0-14.691-14.687h-14.543a14.69 14.69 0 0 1-14.691-14.69 14.456 14.456 0 0 0-14.69-14.219h-.857a14.691 14.691 0 0 1-13.572-20.312A14.69 14.69 0 0 1 93.43 81.09h156.167a14.691 14.691 0 0 0 14.691-14.69 14.69 14.69 0 0 0-14.691-14.686h-55.715a14.69 14.69 0 1 1 0-29.377h161.112a14.694 14.694 0 0 1 14.691 14.69Z" fill="url(#a)"/><path d="m320.926 170.534-40.793 2.352a1.422 1.422 0 0 0-1.338 1.502l2.595 45.028a1.423 1.423 0 0 0 1.503 1.338l40.792-2.351a1.423 1.423 0 0 0 1.339-1.503l-2.596-45.027a1.423 1.423 0 0 0-1.502-1.339Z" fill="#000" fill-opacity=".129"/><path d="m320.832 169.522-40.793 2.351a1.423 1.423 0 0 0-1.338 1.503l2.595 45.027a1.424 1.424 0 0 0 1.503 1.339l40.792-2.352a1.423 1.423 0 0 0 1.339-1.502l-2.596-45.027a1.423 1.423 0 0 0-1.502-1.339Z" fill="#fff"/><path d="m319.401 172.56-37.592 2.167 1.788 31.011 37.592-2.167-1.788-31.011Z" fill="#62A0EA"/><path d="M294.865 186.003 283.099 197.1l.087 1.509.411 7.129 37.593-2.167-.411-7.129-14.913-8.67-4.018 3.722-6.983-5.491Zm13.484-.777a3.772 3.772 0 1 0-.434-7.532 3.772 3.772 0 0 0 .434 7.532Z" fill="#1A5FB4"/><path d="m332.088 186.101-40.584-4.74a1.424 1.424 0 0 0-1.579 1.248l-5.232 44.798a1.423 1.423 0 0 0 1.249 1.578l40.584 4.74a1.423 1.423 0 0 0 1.578-1.248l5.232-44.798a1.422 1.422 0 0 0-1.248-1.578Z" fill="#000" fill-opacity=".129"/><path d="m332.171 185.087-40.584-4.74a1.424 1.424 0 0 0-1.579 1.249l-5.232 44.797a1.423 1.423 0 0 0 1.248 1.579l40.585 4.74a1.423 1.423 0 0 0 1.578-1.249l5.232-44.797a1.424 1.424 0 0 0-1.248-1.579Z" fill="#fff"/><path d="m330.236 187.832-37.4-4.368-3.603 30.853 37.4 4.368 3.603-30.853Z" fill="#FFA348"/><path d="m303.745 196.829-13.509 8.894-.175 1.501-.828 7.093 37.401 4.368.828-7.093-13.188-11.118-4.601 2.971-5.928-6.616Zm13.415 1.566a3.771 3.771 0 1 0 .876-7.492 3.771 3.771 0 0 0-.876 7.492Z" fill="#C64600"/><path d="M328.101 109.699H317.5a6.77 6.77 0 0 0-6.771 6.771v9.806a6.77 6.77 0 0 0 6.771 6.77h10.601a6.77 6.77 0 0 0 6.77-6.77v-9.806a6.77 6.77 0 0 0-6.77-6.771Z" stroke="#fff" stroke-width="3.736" stroke-linecap="round"/><path d="M307.643 127.711c10.381 0 18.795-8.414 18.795-18.795 0-10.38-8.414-18.794-18.795-18.794-10.38 0-18.795 8.414-18.795 18.794 0 10.381 8.415 18.795 18.795 18.795Z" fill="#fff"/><path d="M307.54 116.855a19.27 19.27 0 0 0-19.273 19.273 19.272 19.272 0 0 0 31.502 14.892 19.269 19.269 0 0 0 6.672-11.146h4.889a2.112 2.112 0 0 0 2.117-2.117 2.113 2.113 0 0 0-2.117-2.118h-4.534a19.276 19.276 0 0 0-19.256-18.784Z" fill="#000" fill-opacity=".102"/><path d="M326.205 108.917h-37.357v25.565h37.357v-25.565Z" fill="#fff"/><path d="M307.643 153.161c10.381 0 18.795-8.415 18.795-18.795 0-10.381-8.414-18.795-18.795-18.795-10.38 0-18.795 8.414-18.795 18.795 0 10.38 8.415 18.795 18.795 18.795Z" fill="#fff"/><mask id="b" style="mask-type:luminance" maskUnits="userSpaceOnUse" x="291" y="93" width="33" height="32"><path d="M307.643 124.735c8.737 0 15.819-7.082 15.819-15.818 0-8.737-7.082-15.819-15.819-15.819-8.736 0-15.818 7.082-15.818 15.819 0 8.736 7.082 15.818 15.818 15.818Z" fill="#fff"/></mask><g mask="url(#b)"><path d="M307.643 124.735c8.737 0 15.819-7.082 15.819-15.818 0-8.737-7.082-15.819-15.819-15.819-8.736 0-15.818 7.082-15.818 15.819 0 8.736 7.082 15.818 15.818 15.818Z" fill="#DEDDDA"/><path d="M307.643 131.104c8.737 0 15.819-7.082 15.819-15.818s-7.082-15.818-15.819-15.818c-8.736 0-15.818 7.082-15.818 15.818s7.082 15.818 15.818 15.818Z" fill="#331F14"/></g><path d="M288.501 81.492h43.007m-43.007-8.731h28.354m-26.706-8.427h26.099m-1.34 41.744v-13.01c0-1.822 1.112-2.916 3.241-2.916h13.079m-42.77-8.739a4.291 4.291 0 0 1-3.719-2.147 4.295 4.295 0 0 1 3.719-6.442m43.059 17.322a4.296 4.296 0 0 0 3.72-6.442 4.294 4.294 0 0 0-3.72-2.147m-15.791-8.72a4.297 4.297 0 0 0 4.295-4.295 4.302 4.302 0 0 0-4.295-4.295m-26.559-.012a4.296 4.296 0 0 1-4.294-4.295m-.056-.536V47.978" opacity=".42" stroke="#fff" stroke-width="4.295" stroke-linecap="round"/><path d="M254.79 68.21h-92.216a2.972 2.972 0 0 0-2.972 2.972v54.043a2.971 2.971 0 0 0 2.972 2.972h92.216a2.971 2.971 0 0 0 2.972-2.972V71.182a2.972 2.972 0 0 0-2.972-2.972Z" fill="#000"/><path d="M254.79 130.651h-92.216a2.972 2.972 0 0 0-2.972 2.972v54.043a2.971 2.971 0 0 0 2.972 2.972h92.216a2.971 2.971 0 0 0 2.972-2.972v-54.043a2.972 2.972 0 0 0-2.972-2.972Z" fill="#000" fill-opacity=".102"/><path d="M254.79 129.561h-92.216a2.971 2.971 0 0 0-2.972 2.972v54.043a2.972 2.972 0 0 0 2.972 2.972h92.216a2.972 2.972 0 0 0 2.972-2.972v-54.043a2.971 2.971 0 0 0-2.972-2.972Z" fill="#DEDDDA"/><path d="M254.79 128.197h-92.216a2.972 2.972 0 0 0-2.972 2.972v54.043a2.971 2.971 0 0 0 2.972 2.972h92.216a2.971 2.971 0 0 0 2.972-2.972v-54.043a2.972 2.972 0 0 0-2.972-2.972Z" fill="#F6F5F4"/><path d="M250.291 133.651h-83.218a2.017 2.017 0 0 0-2.018 2.017v25.959c0 1.114.903 2.017 2.018 2.017h83.218a2.017 2.017 0 0 0 2.018-2.017v-25.959a2.017 2.017 0 0 0-2.018-2.017Z" fill="#C0BFBC"/><path d="M250.291 134.196h-83.218a2.017 2.017 0 0 0-2.018 2.018v25.958c0 1.114.903 2.018 2.018 2.018h83.218a2.018 2.018 0 0 0 2.018-2.018v-25.958a2.017 2.017 0 0 0-2.018-2.018Z" fill="#DEDDDA"/><path d="M240.551 122.744h-63.738a.851.851 0 0 0-.851.851v5.933c0 .47.381.851.851.851h63.738c.47 0 .851-.381.851-.851v-5.933a.851.851 0 0 0-.851-.851Z" fill="#000"/><path d="M219.343 166.371h-21.322a2.971 2.971 0 0 0-2.972 2.972v10.416a2.972 2.972 0 0 0 2.972 2.972h21.322a2.972 2.972 0 0 0 2.972-2.972v-10.416a2.971 2.971 0 0 0-2.972-2.972Z" fill="#DEDDDA"/><path d="M254.56 69.877h-91.756c-.896 0-1.622.726-1.622 1.622v53.41c0 .896.726 1.622 1.622 1.622h91.756c.896 0 1.622-.726 1.622-1.622v-53.41c0-.896-.726-1.622-1.622-1.622Z" fill="#4A86CF"/><path d="M233.542 156.827h-45.63c-.576 0-1.043.468-1.043 1.044v3.366c0 .576.467 1.044 1.043 1.044h45.63c.576 0 1.043-.468 1.043-1.044v-3.366c0-.576-.467-1.044-1.043-1.044Zm8.18 0h-4.729c-.577 0-1.044.468-1.044 1.044v3.366c0 .576.467 1.044 1.044 1.044h4.729c.576 0 1.043-.468 1.043-1.044v-3.366c0-.576-.467-1.044-1.043-1.044Zm8.18 0h-4.729c-.577 0-1.044.468-1.044 1.044v3.366c0 .576.467 1.044 1.044 1.044h4.729c.576 0 1.044-.468 1.044-1.044v-3.366c0-.576-.468-1.044-1.044-1.044Zm-5.454-6.816h-3.365c-.577 0-1.044.467-1.044 1.044v3.365c0 .577.467 1.044 1.044 1.044h3.365c.577 0 1.044-.467 1.044-1.044v-3.365c0-.577-.467-1.044-1.044-1.044Zm-6.816 0h-4.729c-.577 0-1.044.467-1.044 1.044v3.365c0 .577.467 1.044 1.044 1.044h4.729c.576 0 1.043-.467 1.043-1.044v-3.365c0-.577-.467-1.044-1.043-1.044Zm-8.18 0h-4.729c-.577 0-1.044.467-1.044 1.044v3.365c0 .577.467 1.044 1.044 1.044h4.729c.576 0 1.043-.467 1.043-1.044v-3.365c0-.577-.467-1.044-1.043-1.044Zm-8.181 0h-4.728c-.577 0-1.044.467-1.044 1.044v3.365c0 .577.467 1.044 1.044 1.044h4.728c.577 0 1.044-.467 1.044-1.044v-3.365c0-.577-.467-1.044-1.044-1.044Zm-8.18 0h-4.729c-.576 0-1.043.467-1.043 1.044v3.365c0 .577.467 1.044 1.043 1.044h4.729c.577 0 1.044-.467 1.044-1.044v-3.365c0-.577-.467-1.044-1.044-1.044Zm-8.18 0h-4.729c-.576 0-1.043.467-1.043 1.044v3.365c0 .577.467 1.044 1.043 1.044h4.729c.577 0 1.044-.467 1.044-1.044v-3.365c0-.577-.467-1.044-1.044-1.044Zm-8.18 0h-4.729c-.576 0-1.044.467-1.044 1.044v3.365c0 .577.468 1.044 1.044 1.044h4.729c.577 0 1.044-.467 1.044-1.044v-3.365c0-.577-.467-1.044-1.044-1.044Zm-8.18 0h-4.729c-.576 0-1.044.467-1.044 1.044v3.365c0 .577.468 1.044 1.044 1.044h4.729c.577 0 1.044-.467 1.044-1.044v-3.365c0-.577-.467-1.044-1.044-1.044Zm-8.18 0h-4.729c-.576 0-1.044.467-1.044 1.044v3.365c0 .577.468 1.044 1.044 1.044h4.729c.577 0 1.044-.467 1.044-1.044v-3.365c0-.577-.467-1.044-1.044-1.044Zm61.351-6.817h-4.729c-.577 0-1.044.467-1.044 1.044v3.366c0 .576.467 1.043 1.044 1.043h4.729c.576 0 1.043-.467 1.043-1.043v-3.366c0-.577-.467-1.044-1.043-1.044Zm-8.18 0h-4.729c-.577 0-1.044.467-1.044 1.044v3.366c0 .576.467 1.043 1.044 1.043h4.729c.576 0 1.043-.467 1.043-1.043v-3.366c0-.577-.467-1.044-1.043-1.044Zm-8.181 0h-4.728c-.577 0-1.044.467-1.044 1.044v3.366c0 .576.467 1.043 1.044 1.043h4.728c.577 0 1.044-.467 1.044-1.043v-3.366c0-.577-.467-1.044-1.044-1.044Zm-8.179 0h-4.729c-.577 0-1.044.467-1.044 1.044v3.366c0 .576.467 1.043 1.044 1.043h4.729c.576 0 1.043-.467 1.043-1.043v-3.366c0-.577-.467-1.044-1.043-1.044Zm-8.181 0h-4.729c-.576 0-1.043.467-1.043 1.044v3.366c0 .576.467 1.043 1.043 1.043h4.729c.577 0 1.044-.467 1.044-1.043v-3.366c0-.577-.467-1.044-1.044-1.044Zm-8.18 0h-4.729c-.576 0-1.043.467-1.043 1.044v3.366c0 .576.467 1.043 1.043 1.043h4.729c.577 0 1.044-.467 1.044-1.043v-3.366c0-.577-.467-1.044-1.044-1.044Zm-8.18 0h-4.729c-.576 0-1.043.467-1.043 1.044v3.366c0 .576.467 1.043 1.043 1.043h4.729c.577 0 1.044-.467 1.044-1.043v-3.366c0-.577-.467-1.044-1.044-1.044Zm-8.18 0h-4.729c-.576 0-1.044.467-1.044 1.044v3.366c0 .576.468 1.043 1.044 1.043h4.729c.577 0 1.044-.467 1.044-1.043v-3.366c0-.577-.467-1.044-1.044-1.044Zm-8.18 0h-8.819c-.576 0-1.044.467-1.044 1.044v3.366c0 .576.468 1.043 1.044 1.043h8.819c.577 0 1.044-.467 1.044-1.043v-3.366c0-.577-.467-1.044-1.044-1.044Zm73.621-6.817h-8.819c-.577 0-1.044.468-1.044 1.044v3.366c0 .576.467 1.044 1.044 1.044h8.819c.576 0 1.044-.468 1.044-1.044v-3.366c0-.576-.468-1.044-1.044-1.044Zm-12.27 0h-4.729c-.577 0-1.044.468-1.044 1.044v3.366c0 .576.467 1.044 1.044 1.044h4.729c.576 0 1.043-.468 1.043-1.044v-3.366c0-.576-.467-1.044-1.043-1.044Zm-8.18 0h-4.729c-.577 0-1.044.468-1.044 1.044v3.366c0 .576.467 1.044 1.044 1.044h4.729c.576 0 1.043-.468 1.043-1.044v-3.366c0-.576-.467-1.044-1.043-1.044Zm-8.181 0h-4.728c-.577 0-1.044.468-1.044 1.044v3.366c0 .576.467 1.044 1.044 1.044h4.728c.577 0 1.044-.468 1.044-1.044v-3.366c0-.576-.467-1.044-1.044-1.044Zm-8.18 0h-4.729c-.576 0-1.043.468-1.043 1.044v3.366c0 .576.467 1.044 1.043 1.044h4.729c.577 0 1.044-.468 1.044-1.044v-3.366c0-.576-.467-1.044-1.044-1.044Zm-8.18 0h-4.729c-.576 0-1.043.468-1.043 1.044v3.366c0 .576.467 1.044 1.043 1.044h4.729c.577 0 1.044-.468 1.044-1.044v-3.366c0-.576-.467-1.044-1.044-1.044Zm-8.18 0h-4.729c-.576 0-1.043.468-1.043 1.044v3.366c0 .576.467 1.044 1.043 1.044h4.729c.577 0 1.044-.468 1.044-1.044v-3.366c0-.576-.467-1.044-1.044-1.044Zm-8.18 0h-4.729c-.576 0-1.043.468-1.043 1.044v3.366c0 .576.467 1.044 1.043 1.044h4.729c.577 0 1.044-.468 1.044-1.044v-3.366c0-.576-.467-1.044-1.044-1.044Zm-8.18 0h-4.729c-.576 0-1.044.468-1.044 1.044v3.366c0 .576.468 1.044 1.044 1.044h4.729c.577 0 1.044-.468 1.044-1.044v-3.366c0-.576-.467-1.044-1.044-1.044Zm-8.18 0h-4.729c-.576 0-1.044.468-1.044 1.044v3.366c0 .576.468 1.044 1.044 1.044h4.729c.577 0 1.044-.468 1.044-1.044v-3.366c0-.576-.467-1.044-1.044-1.044Zm0 13.634h-4.729c-.576 0-1.044.467-1.044 1.044v3.365c0 .577.468 1.044 1.044 1.044h4.729c.577 0 1.044-.467 1.044-1.044v-3.365c0-.577-.467-1.044-1.044-1.044Zm12.27 6.816h-4.729c-.576 0-1.044.468-1.044 1.044v3.366c0 .576.468 1.044 1.044 1.044h4.729c.577 0 1.044-.468 1.044-1.044v-3.366c0-.576-.467-1.044-1.044-1.044Zm-8.18 0h-8.819c-.576 0-1.044.468-1.044 1.044v3.366c0 .576.468 1.044 1.044 1.044h8.819c.577 0 1.044-.468 1.044-1.044v-3.366c0-.576-.467-1.044-1.044-1.044Zm73.621-13.633h-4.729c-.577 0-1.044.467-1.044 1.044v3.366c0 .576.467 1.043 1.044 1.043h4.729c.576 0 1.044-.467 1.044-1.043v-3.366c0-.577-.468-1.044-1.044-1.044Z" fill="#241F31"/><path d="M249.902 143.194h-2.003c-.576 0-1.043.467-1.043 1.044v10.182c0 .577.467 1.044 1.043 1.044h2.003c.576 0 1.044-.467 1.044-1.044v-10.182c0-.577-.468-1.044-1.044-1.044Z" fill="#241F31"/><mask id="c" style="mask-type:luminance" maskUnits="userSpaceOnUse" x="161" y="69" width="96" height="58"><path d="M254.56 69.877h-91.756c-.896 0-1.622.726-1.622 1.622v53.41c0 .896.726 1.622 1.622 1.622h91.756c.896 0 1.622-.726 1.622-1.622v-53.41c0-.896-.726-1.622-1.622-1.622Z" fill="#fff"/></mask><g mask="url(#c)"><path d="M161.298 70.943h94.768-94.768Z" fill="#3D3846"/><path d="M161.298 70.943h94.768" stroke="#fff" stroke-opacity=".5" stroke-width="2.634"/><path d="M161.298 115.365h14.264-14.264Zm45.663 0h4.259-4.259Zm25.236 0h23.869-23.869Z" fill="#3D3846"/><path d="M161.298 115.365h14.264m31.399 0h4.259m20.977 0h23.869" stroke="#fff" stroke-opacity=".5" stroke-width="2.634"/><path d="M161.298 120.918h7.652-7.652Zm79.297 0h15.471-15.471Z" fill="#3D3846"/><path d="M161.298 120.918h7.652m71.645 0h15.471" stroke="#fff" stroke-opacity=".5" stroke-width="2.634"/><path d="M161.298 126.471h1.039-1.039Zm87.696 0h7.072-7.072Z" fill="#3D3846"/><path d="M161.298 126.471h1.039m86.657 0h7.072" stroke="#fff" stroke-opacity=".5" stroke-width="2.634"/><path d="M161.298 109.812h20.876-20.876Zm40.951 0h14.443-14.443Zm21.549 0h32.268-32.268Z" fill="#3D3846"/><path d="M161.298 109.812h20.876m20.075 0h14.443m7.106 0h32.268" stroke="#fff" stroke-opacity=".5" stroke-width="2.634"/><path d="M161.298 104.259h27.488-27.488Zm34.671 0h60.097-60.097Z" fill="#3D3846"/><path d="M161.298 104.259h27.488m7.183 0h60.097" stroke="#fff" stroke-opacity=".5" stroke-width="2.634"/><path d="M161.298 98.707h58.789-58.789Zm71.539 0h23.229-23.229Z" fill="#3D3846"/><path d="M161.298 98.707h58.789m12.75 0h23.229" stroke="#fff" stroke-opacity=".5" stroke-width="2.634"/><path d="M161.298 93.154h55.787-55.787Zm74.541 0h20.227-20.227Z" fill="#3D3846"/><path d="M161.298 93.154h55.787m18.754 0h20.227" stroke="#fff" stroke-opacity=".5" stroke-width="2.634"/><path d="m161.298 87.614 56.589-.013-56.589.013Zm73.739-.013h21.029-21.029Z" fill="#3D3846"/><path d="m161.298 87.614 56.589-.013m17.15 0h21.029" stroke="#fff" stroke-opacity=".5" stroke-width="2.634"/><path d="M161.298 82.048h94.768-94.768Z" fill="#3D3846"/><path d="M161.298 82.048h94.768" stroke="#fff" stroke-opacity=".5" stroke-width="2.634"/><path d="M161.298 76.496h94.768-94.768Z" fill="#3D3846"/><path d="M161.298 76.496h94.768" stroke="#fff" stroke-opacity=".5" stroke-width="2.634"/></g><path d="M471.888 174.738h-34.427a5.146 5.146 0 0 0-5.146 5.146v35.269a5.146 5.146 0 0 0 5.146 5.146h34.427a5.146 5.146 0 0 0 5.146-5.146v-35.269a5.146 5.146 0 0 0-5.146-5.146Z" fill="#000" fill-opacity=".092"/><path d="M471.888 174.738h-34.427a5.146 5.146 0 0 0-5.146 5.146v34.426a5.146 5.146 0 0 0 5.146 5.147h34.427a5.146 5.146 0 0 0 5.146-5.147v-34.426a5.146 5.146 0 0 0-5.146-5.146Z" fill="url(#d)"/><path d="M471.888 174.737h-34.427a5.147 5.147 0 0 0-5.146 5.147v30.19a5.146 5.146 0 0 0 5.146 5.147h34.427a5.146 5.146 0 0 0 5.146-5.147v-30.19a5.147 5.147 0 0 0-5.146-5.147Z" fill="url(#e)"/><path d="M445.358 208.954v-7.453h18.633v7.453h-18.633Z" fill="url(#f)"/><path d="M463.991 181.004v24.223h-18.633v-7.453h11.18v-16.77h7.453Z" fill="url(#g)"/><path d="M432.315 209.011v1.063a5.135 5.135 0 0 0 5.146 5.147h34.427a5.136 5.136 0 0 0 5.147-5.147v-1.063a5.136 5.136 0 0 1-5.147 5.147h-34.427a5.135 5.135 0 0 1-5.146-5.147Z" fill="#fff" fill-opacity=".273"/><path d="M91.573 50H57.147A5.147 5.147 0 0 0 52 55.147v35.268a5.147 5.147 0 0 0 5.147 5.147h34.426a5.147 5.147 0 0 0 5.147-5.147V55.147A5.147 5.147 0 0 0 91.573 50Z" fill="#000" fill-opacity=".092"/><path d="M91.573 50H57.147A5.147 5.147 0 0 0 52 55.147v34.426a5.147 5.147 0 0 0 5.147 5.147h34.426a5.147 5.147 0 0 0 5.147-5.147V55.147A5.147 5.147 0 0 0 91.573 50Z" fill="url(#h)"/><path d="M91.573 50H57.147A5.147 5.147 0 0 0 52 55.147v30.19a5.147 5.147 0 0 0 5.147 5.147h34.426a5.147 5.147 0 0 0 5.147-5.147v-30.19A5.147 5.147 0 0 0 91.573 50Z" fill="url(#i)"/><path d="M83.955 59.893v24.223h-7.453V74.8h-3.727a7.455 7.455 0 0 1-7.453-7.453V63.62h1.028a7.454 7.454 0 0 1 6.425-3.727h11.18Zm-7.453 5.59h-2.795a1.863 1.863 0 1 0 0 3.727h2.795v-3.727Z" fill="url(#j)"/><path d="M83.955 56.167V80.39h-7.453v-9.317h-3.727a7.453 7.453 0 0 1 0-14.906h11.18Zm-7.453 5.59h-2.795a1.863 1.863 0 0 0 0 3.726h2.795v-3.726Z" fill="url(#k)"/><path d="M52 84.274v1.063a5.136 5.136 0 0 0 5.147 5.147h34.426a5.136 5.136 0 0 0 5.147-5.147v-1.063a5.136 5.136 0 0 1-5.147 5.147H57.147A5.136 5.136 0 0 1 52 84.274Z" fill="#fff" fill-opacity=".273"/><path d="M453.888 5.272h-34.426a5.147 5.147 0 0 0-5.147 5.147v35.268a5.147 5.147 0 0 0 5.147 5.147h34.426a5.147 5.147 0 0 0 5.147-5.147V10.42a5.147 5.147 0 0 0-5.147-5.147Z" fill="#000" fill-opacity=".092"/><path d="M453.888 5.272h-34.426a5.147 5.147 0 0 0-5.147 5.147v34.426a5.147 5.147 0 0 0 5.147 5.147h34.426a5.147 5.147 0 0 0 5.147-5.147V10.419a5.147 5.147 0 0 0-5.147-5.147Z" fill="url(#l)"/><path d="M453.888 5.272h-34.426a5.147 5.147 0 0 0-5.147 5.147v30.19a5.147 5.147 0 0 0 5.147 5.146h34.426a5.147 5.147 0 0 0 5.147-5.146v-30.19a5.147 5.147 0 0 0-5.147-5.147Z" fill="url(#m)"/><path d="M438.538 23.92v3.726h1.863l1.331 9.316h.533v3.727h-7.454l-3.726-13.043v-3.727h7.453Z" fill="url(#n)"/><path d="M440.401 23.92h-9.316l3.726 13.042h7.454l-1.864-13.043Z" fill="url(#o)"/><path d="M414.315 39.546v1.063a5.135 5.135 0 0 0 5.146 5.146h34.427a5.136 5.136 0 0 0 5.147-5.146v-1.063a5.136 5.136 0 0 1-5.147 5.147h-34.427a5.135 5.135 0 0 1-5.146-5.147Z" fill="#fff" fill-opacity=".273"/><path d="M79.539 210.166H45.112a5.147 5.147 0 0 0-5.146 5.147v35.268a5.147 5.147 0 0 0 5.146 5.147H79.54a5.147 5.147 0 0 0 5.146-5.147v-35.268a5.147 5.147 0 0 0-5.146-5.147Z" fill="#000" fill-opacity=".092"/><path d="M79.538 210.166H45.112a5.147 5.147 0 0 0-5.147 5.147v34.426a5.147 5.147 0 0 0 5.147 5.147h34.426a5.147 5.147 0 0 0 5.147-5.147v-34.426a5.147 5.147 0 0 0-5.147-5.147Z" fill="url(#p)"/><path d="M79.538 210.166H45.112a5.147 5.147 0 0 0-5.147 5.147v30.19a5.147 5.147 0 0 0 5.147 5.147h34.426a5.147 5.147 0 0 0 5.147-5.147v-30.19a5.147 5.147 0 0 0-5.147-5.147Z" fill="url(#q)"/><path d="M62.325 220.16a4.66 4.66 0 0 1 2.775.931h1.884v3.727a4.662 4.662 0 0 1-2.876 4.304 4.66 4.66 0 0 1-6.44-4.304v-3.727h1.864a4.657 4.657 0 0 1 2.793-.931Z" fill="url(#r)"/><path d="M62.325 225.75a4.659 4.659 0 1 1 .001-9.317 4.659 4.659 0 0 1 0 9.317Z" fill="url(#s)"/><path d="M62.325 235.066a4.66 4.66 0 0 1 2.775.932h1.884v3.727a4.657 4.657 0 0 1-9.317 0v-3.727h1.865a4.658 4.658 0 0 1 2.793-.932Z" fill="url(#t)"/><path d="M62.325 240.656a4.658 4.658 0 1 1 0-9.316 4.658 4.658 0 0 1 0 9.316Z" fill="url(#u)"/><path d="M39.965 244.44v1.063a5.135 5.135 0 0 0 5.147 5.146h34.426a5.135 5.135 0 0 0 5.147-5.146v-1.063a5.136 5.136 0 0 1-5.147 5.147H45.112a5.136 5.136 0 0 1-5.147-5.147Z" fill="#fff" fill-opacity=".273"/><defs><linearGradient id="a" x1="337.5" y1="257" x2="106.969" y2="-.253" gradientUnits="userSpaceOnUse"><stop stop-color="#F5C211"/><stop offset="1" stop-color="#E66100"/></linearGradient><linearGradient id="d" x1="432.315" y1="219.457" x2="477.034" y2="219.457" gradientUnits="userSpaceOnUse"><stop stop-color="#C64600"/><stop offset=".063" stop-color="#FFA348"/><stop offset=".151" stop-color="#C64600"/><stop offset=".901" stop-color="#C64600"/><stop offset=".954" stop-color="#FFA348"/><stop offset="1" stop-color="#C64600"/></linearGradient><linearGradient id="e" x1="432.315" y1="174.737" x2="472.599" y2="219.236" gradientUnits="userSpaceOnUse"><stop stop-color="#FFA348"/><stop offset=".2" stop-color="#FFBE6F"/><stop offset="1" stop-color="#FF7800"/></linearGradient><linearGradient id="f" x1="444.757" y1="205.227" x2="464.592" y2="205.227" gradientUnits="userSpaceOnUse"><stop stop-color="#C64600"/><stop offset=".842" stop-color="#E66100"/><stop offset="1" stop-color="#C64600"/></linearGradient><linearGradient id="g" x1="445.358" y1="202.432" x2="463.991" y2="183.799" gradientUnits="userSpaceOnUse"><stop stop-color="#E66100"/><stop offset=".2" stop-color="#FF7800"/><stop offset="1" stop-color="#E66100"/></linearGradient><linearGradient id="h" x1="52" y1="94.72" x2="96.72" y2="94.72" gradientUnits="userSpaceOnUse"><stop stop-color="#C64600"/><stop offset=".063" stop-color="#FFA348"/><stop offset=".151" stop-color="#C64600"/><stop offset=".901" stop-color="#C64600"/><stop offset=".954" stop-color="#FFA348"/><stop offset="1" stop-color="#C64600"/></linearGradient><linearGradient id="i" x1="52" y1="50" x2="92.284" y2="94.499" gradientUnits="userSpaceOnUse"><stop stop-color="#FFA348"/><stop offset=".2" stop-color="#FFBE6F"/><stop offset="1" stop-color="#FF7800"/></linearGradient><linearGradient id="j" x1="74.639" y1="59.112" x2="74.639" y2="84.897" gradientUnits="userSpaceOnUse"><stop stop-color="#C64600"/><stop offset=".842" stop-color="#E66100"/><stop offset="1" stop-color="#C64600"/></linearGradient><linearGradient id="k" x1="65.322" y1="77.595" x2="83.955" y2="58.962" gradientUnits="userSpaceOnUse"><stop stop-color="#E66100"/><stop offset=".2" stop-color="#FF7800"/><stop offset="1" stop-color="#E66100"/></linearGradient><linearGradient id="l" x1="414.315" y1="49.992" x2="459.035" y2="49.992" gradientUnits="userSpaceOnUse"><stop stop-color="#49514E"/><stop offset=".054" stop-color="#8C9592"/><stop offset=".108" stop-color="#626B68"/><stop offset=".7" stop-color="#868D8D"/><stop offset=".901" stop-color="#626C6A"/><stop offset=".938" stop-color="#939B9A"/><stop offset="1" stop-color="#434949"/></linearGradient><linearGradient id="m" x1="414.315" y1="5.272" x2="454.599" y2="49.771" gradientUnits="userSpaceOnUse"><stop stop-color="#9AA6A5"/><stop offset=".7" stop-color="#BDC0C0"/><stop offset="1" stop-color="#96A5A1"/></linearGradient><linearGradient id="n" x1="431.085" y1="32.304" x2="442.265" y2="32.304" gradientUnits="userSpaceOnUse"><stop stop-color="#212524"/><stop offset=".7" stop-color="#494D4D"/><stop offset="1" stop-color="#323938"/></linearGradient><linearGradient id="o" x1="432.226" y1="38.147" x2="441.124" y2="22.735" gradientUnits="userSpaceOnUse"><stop stop-color="#454E4D"/><stop offset=".7" stop-color="#707777"/><stop offset="1" stop-color="#556461"/></linearGradient><linearGradient id="p" x1="39.965" y1="254.886" x2="84.685" y2="254.886" gradientUnits="userSpaceOnUse"><stop stop-color="#49514E"/><stop offset=".054" stop-color="#8C9592"/><stop offset=".108" stop-color="#626B68"/><stop offset=".7" stop-color="#868D8D"/><stop offset=".901" stop-color="#626C6A"/><stop offset=".938" stop-color="#939B9A"/><stop offset="1" stop-color="#434949"/></linearGradient><linearGradient id="q" x1="39.965" y1="210.166" x2="80.249" y2="254.665" gradientUnits="userSpaceOnUse"><stop stop-color="#9AA6A5"/><stop offset=".7" stop-color="#BDC0C0"/><stop offset="1" stop-color="#96A5A1"/></linearGradient><linearGradient id="r" x1="66.984" y1="224.818" x2="57.667" y2="224.818" gradientUnits="userSpaceOnUse"><stop stop-color="#212524"/><stop offset=".7" stop-color="#494D4D"/><stop offset="1" stop-color="#323938"/></linearGradient><linearGradient id="s" x1="66.984" y1="225.75" x2="57.667" y2="216.433" gradientUnits="userSpaceOnUse"><stop stop-color="#454E4D"/><stop offset=".7" stop-color="#707777"/><stop offset="1" stop-color="#556461"/></linearGradient><linearGradient id="t" x1="66.984" y1="239.724" x2="57.667" y2="239.724" gradientUnits="userSpaceOnUse"><stop stop-color="#212524"/><stop offset=".7" stop-color="#494D4D"/><stop offset="1" stop-color="#323938"/></linearGradient><linearGradient id="u" x1="66.731" y1="240.404" x2="57.919" y2="231.592" gradientUnits="userSpaceOnUse"><stop stop-color="#454E4D"/><stop offset=".7" stop-color="#707777"/><stop offset="1" stop-color="#556461"/></linearGradient></defs></svg>